<?xml version="1.0" encoding="UTF-8" ?>
<svg version="1.1" width="32" height="32" xmlns="http://www.w3.org/2000/svg" shape-rendering="crispEdges">
<rect x="21" y="1" width="8" height="1" fill="#000000" />
<rect x="20" y="2" width="1" height="1" fill="#000000" />
<rect x="21" y="2" width="8" height="1" fill="#FFFFFF" />
<rect x="29" y="2" width="1" height="1" fill="#000000" />
<rect x="19" y="3" width="1" height="4" fill="#000000" />
<rect x="20" y="3" width="2" height="4" fill="#FFFFFF" />
<rect x="22" y="3" width="1" height="1" fill="#2F2F2F" />
<rect x="23" y="3" width="1" height="2" fill="#FFFFFF" />
<rect x="24" y="3" width="4" height="1" fill="#2F2F2F" />
<rect x="28" y="3" width="2" height="4" fill="#FFFFFF" />
<rect x="30" y="3" width="1" height="4" fill="#000000" />
<rect x="22" y="4" width="1" height="1" fill="#FFFFFF" />
<rect x="24" y="4" width="4" height="1" fill="#FFFFFF" />
<rect x="22" y="5" width="2" height="1" fill="#2F2F2F" />
<rect x="24" y="5" width="1" height="2" fill="#FFFFFF" />
<rect x="25" y="5" width="1" height="1" fill="#2F2F2F" />
<rect x="26" y="5" width="1" height="2" fill="#FFFFFF" />
<rect x="27" y="5" width="1" height="1" fill="#2F2F2F" />
<rect x="22" y="6" width="2" height="2" fill="#FFFFFF" />
<rect x="25" y="6" width="1" height="1" fill="#FFFFFF" />
<rect x="27" y="6" width="1" height="1" fill="#FFFFFF" />
<rect x="14" y="7" width="4" height="1" fill="#000000" />
<rect x="20" y="7" width="1" height="1" fill="#000000" />
<rect x="21" y="7" width="1" height="1" fill="#FFFFFF" />
<rect x="24" y="7" width="6" height="1" fill="#000000" />
<rect x="13" y="8" width="1" height="1" fill="#000000" />
<rect x="14" y="8" width="2" height="1" fill="#5894B5" />
<rect x="16" y="8" width="2" height="1" fill="#5D89A9" />
<rect x="18" y="8" width="1" height="1" fill="#000000" />
<rect x="21" y="8" width="3" height="1" fill="#000000" />
<rect x="9" y="9" width="4" height="1" fill="#000000" />
<rect x="13" y="9" width="1" height="1" fill="#5894B5" />
<rect x="14" y="9" width="3" height="1" fill="#5D89A9" />
<rect x="17" y="9" width="2" height="2" fill="#5A7BB6" />
<rect x="19" y="9" width="4" height="1" fill="#000000" />
<rect x="4" y="10" width="2" height="1" fill="#000000" />
<rect x="8" y="10" width="1" height="1" fill="#000000" />
<rect x="9" y="10" width="1" height="1" fill="#5D89A9" />
<rect x="10" y="10" width="2" height="1" fill="#5894B5" />
<rect x="12" y="10" width="3" height="1" fill="#5D89A9" />
<rect x="15" y="10" width="2" height="3" fill="#5A7BB6" />
<rect x="19" y="10" width="1" height="1" fill="#6370AD" />
<rect x="20" y="10" width="3" height="3" fill="#5A6AB6" />
<rect x="23" y="10" width="1" height="1" fill="#000000" />
<rect x="26" y="10" width="2" height="1" fill="#000000" />
<rect x="3" y="11" width="1" height="1" fill="#000000" />
<rect x="4" y="11" width="2" height="1" fill="#5894B5" />
<rect x="6" y="11" width="2" height="1" fill="#000000" />
<rect x="8" y="11" width="3" height="1" fill="#5894B5" />
<rect x="11" y="11" width="1" height="1" fill="#5D89A9" />
<rect x="12" y="11" width="3" height="2" fill="#5A7BB6" />
<rect x="17" y="11" width="1" height="1" fill="#5A7BB6" />
<rect x="18" y="11" width="1" height="1" fill="#6370AD" />
<rect x="19" y="11" width="1" height="2" fill="#5A6AB6" />
<rect x="23" y="11" width="1" height="4" fill="#403A6F" />
<rect x="24" y="11" width="2" height="1" fill="#000000" />
<rect x="26" y="11" width="2" height="1" fill="#3A3277" />
<rect x="28" y="11" width="1" height="1" fill="#000000" />
<rect x="2" y="12" width="1" height="5" fill="#000000" />
<rect x="3" y="12" width="1" height="2" fill="#5D89A9" />
<rect x="4" y="12" width="2" height="5" fill="#FFFFFF" />
<rect x="6" y="12" width="1" height="1" fill="#5D89A9" />
<rect x="7" y="12" width="1" height="1" fill="#000000" />
<rect x="8" y="12" width="2" height="1" fill="#5894B5" />
<rect x="10" y="12" width="1" height="1" fill="#5D89A9" />
<rect x="11" y="12" width="1" height="1" fill="#5A7BB6" />
<rect x="17" y="12" width="1" height="1" fill="#6370AD" />
<rect x="18" y="12" width="1" height="7" fill="#5A6AB6" />
<rect x="24" y="12" width="1" height="1" fill="#000000" />
<rect x="25" y="12" width="1" height="5" fill="#3A3277" />
<rect x="26" y="12" width="2" height="5" fill="#FFFFFF" />
<rect x="28" y="12" width="1" height="4" fill="#3A3277" />
<rect x="29" y="12" width="1" height="5" fill="#000000" />
<rect x="6" y="13" width="3" height="1" fill="#5894B5" />
<rect x="9" y="13" width="1" height="2" fill="#5D89A9" />
<rect x="10" y="13" width="1" height="6" fill="#5A7BB6" />
<rect x="11" y="13" width="2" height="2" fill="#FFFFFF" />
<rect x="13" y="13" width="2" height="2" fill="#5A7BB6" />
<rect x="15" y="13" width="2" height="1" fill="#6370AD" />
<rect x="17" y="13" width="1" height="3" fill="#5A6AB6" />
<rect x="19" y="13" width="2" height="2" fill="#FFFFFF" />
<rect x="21" y="13" width="2" height="2" fill="#5A6AB6" />
<rect x="24" y="13" width="1" height="2" fill="#403A6F" />
<rect x="3" y="14" width="1" height="2" fill="#5894B5" />
<rect x="6" y="14" width="2" height="1" fill="#5894B5" />
<rect x="8" y="14" width="1" height="3" fill="#5D89A9" />
<rect x="15" y="14" width="1" height="1" fill="#6370AD" />
<rect x="16" y="14" width="1" height="3" fill="#5A6AB6" />
<rect x="6" y="15" width="1" height="1" fill="#5894B5" />
<rect x="7" y="15" width="1" height="1" fill="#5D89A9" />
<rect x="9" y="15" width="1" height="4" fill="#5A7BB6" />
<rect x="11" y="15" width="3" height="1" fill="#5A7BB6" />
<rect x="14" y="15" width="1" height="1" fill="#6370AD" />
<rect x="15" y="15" width="1" height="2" fill="#5A6AB6" />
<rect x="19" y="15" width="3" height="1" fill="#5A6AB6" />
<rect x="22" y="15" width="1" height="1" fill="#403A6F" />
<rect x="23" y="15" width="2" height="1" fill="#3A3277" />
<rect x="3" y="16" width="1" height="1" fill="#5D89A9" />
<rect x="6" y="16" width="1" height="1" fill="#5D89A9" />
<rect x="7" y="16" width="1" height="2" fill="#000000" />
<rect x="11" y="16" width="2" height="1" fill="#5A7BB6" />
<rect x="13" y="16" width="1" height="1" fill="#6370AD" />
<rect x="14" y="16" width="1" height="1" fill="#FFFFFF" />
<rect x="17" y="16" width="1" height="1" fill="#FFFFFF" />
<rect x="19" y="16" width="1" height="1" fill="#5A6AB6" />
<rect x="20" y="16" width="2" height="1" fill="#403A6F" />
<rect x="22" y="16" width="2" height="2" fill="#3A3277" />
<rect x="24" y="16" width="1" height="2" fill="#000000" />
<rect x="28" y="16" width="1" height="1" fill="#6772A9" />
<rect x="3" y="17" width="1" height="1" fill="#000000" />
<rect x="4" y="17" width="1" height="1" fill="#5894B5" />
<rect x="5" y="17" width="1" height="1" fill="#5D89A9" />
<rect x="6" y="17" width="1" height="1" fill="#000000" />
<rect x="8" y="17" width="1" height="1" fill="#5A7BB6" />
<rect x="11" y="17" width="1" height="2" fill="#5A7BB6" />
<rect x="12" y="17" width="1" height="2" fill="#6370AD" />
<rect x="13" y="17" width="2" height="2" fill="#5A6AB6" />
<rect x="15" y="17" width="2" height="1" fill="#FFFFFF" />
<rect x="17" y="17" width="1" height="2" fill="#5A6AB6" />
<rect x="19" y="17" width="2" height="1" fill="#403A6F" />
<rect x="21" y="17" width="1" height="2" fill="#3A3277" />
<rect x="25" y="17" width="1" height="1" fill="#000000" />
<rect x="26" y="17" width="2" height="1" fill="#3A3277" />
<rect x="28" y="17" width="1" height="1" fill="#000000" />
<rect x="4" y="18" width="2" height="1" fill="#000000" />
<rect x="8" y="18" width="1" height="1" fill="#000000" />
<rect x="15" y="18" width="2" height="1" fill="#5A6AB6" />
<rect x="19" y="18" width="1" height="1" fill="#403A6F" />
<rect x="20" y="18" width="1" height="1" fill="#3A3277" />
<rect x="22" y="18" width="1" height="1" fill="#3A3277" />
<rect x="23" y="18" width="1" height="1" fill="#000000" />
<rect x="26" y="18" width="2" height="1" fill="#000000" />
<rect x="9" y="19" width="5" height="1" fill="#000000" />
<rect x="14" y="19" width="2" height="2" fill="#5A6AB6" />
<rect x="16" y="19" width="2" height="3" fill="#3A3277" />
<rect x="18" y="19" width="5" height="1" fill="#000000" />
<rect x="13" y="20" width="1" height="1" fill="#000000" />
<rect x="18" y="20" width="1" height="1" fill="#000000" />
<rect x="12" y="21" width="1" height="1" fill="#000000" />
<rect x="13" y="21" width="3" height="1" fill="#3A3277" />
<rect x="18" y="21" width="1" height="4" fill="#3A3277" />
<rect x="19" y="21" width="1" height="1" fill="#000000" />
<rect x="11" y="22" width="1" height="1" fill="#000000" />
<rect x="12" y="22" width="1" height="1" fill="#6772A9" />
<rect x="13" y="22" width="2" height="1" fill="#5D89A9" />
<rect x="15" y="22" width="2" height="1" fill="#5A6AB6" />
<rect x="17" y="22" width="1" height="3" fill="#3A3277" />
<rect x="19" y="22" width="1" height="3" fill="#3A3277" />
<rect x="20" y="22" width="1" height="1" fill="#000000" />
<rect x="8" y="23" width="3" height="1" fill="#000000" />
<rect x="11" y="23" width="1" height="2" fill="#6772A9" />
<rect x="12" y="23" width="2" height="1" fill="#5D89A9" />
<rect x="14" y="23" width="2" height="1" fill="#5A6AB6" />
<rect x="16" y="23" width="1" height="2" fill="#3A3277" />
<rect x="20" y="23" width="1" height="2" fill="#3A3277" />
<rect x="21" y="23" width="3" height="1" fill="#000000" />
<rect x="7" y="24" width="1" height="1" fill="#000000" />
<rect x="8" y="24" width="3" height="1" fill="#6772A9" />
<rect x="12" y="24" width="1" height="1" fill="#6772A9" />
<rect x="13" y="24" width="3" height="1" fill="#3A3277" />
<rect x="21" y="24" width="3" height="1" fill="#3A3277" />
<rect x="24" y="24" width="1" height="1" fill="#000000" />
<rect x="8" y="25" width="16" height="1" fill="#000000" />
</svg>