<?xml version="1.0" encoding="UTF-8" ?>
<svg version="1.1" width="32" height="32" xmlns="http://www.w3.org/2000/svg" shape-rendering="crispEdges">
<rect x="3" y="7" width="26" height="1" fill="#000000" />
<rect x="2" y="8" width="1" height="16" fill="#000000" />
<rect x="3" y="8" width="26" height="1" fill="#5894B5" />
<rect x="29" y="8" width="1" height="16" fill="#000000" />
<rect x="3" y="9" width="20" height="2" fill="#5894B5" />
<rect x="23" y="9" width="1" height="1" fill="#0ED925" />
<rect x="24" y="9" width="1" height="2" fill="#5894B5" />
<rect x="25" y="9" width="1" height="1" fill="#1FEEF1" />
<rect x="26" y="9" width="1" height="2" fill="#5894B5" />
<rect x="27" y="9" width="1" height="1" fill="#BE2D0C" />
<rect x="28" y="9" width="1" height="2" fill="#5894B5" />
<rect x="23" y="10" width="1" height="1" fill="#5894B5" />
<rect x="25" y="10" width="1" height="1" fill="#5894B5" />
<rect x="27" y="10" width="1" height="1" fill="#5894B5" />
<rect x="3" y="11" width="26" height="1" fill="#2F2F2F" />
<rect x="3" y="12" width="1" height="12" fill="#2F2F2F" />
<rect x="4" y="12" width="1" height="1" fill="#FFFFFF" />
<rect x="5" y="12" width="24" height="1" fill="#2F2F2F" />
<rect x="4" y="13" width="1" height="1" fill="#2F2F2F" />
<rect x="5" y="13" width="1" height="1" fill="#FFFFFF" />
<rect x="6" y="13" width="23" height="1" fill="#2F2F2F" />
<rect x="4" y="14" width="1" height="1" fill="#FFFFFF" />
<rect x="5" y="14" width="2" height="10" fill="#2F2F2F" />
<rect x="7" y="14" width="1" height="1" fill="#FFFFFF" />
<rect x="8" y="14" width="1" height="10" fill="#2F2F2F" />
<rect x="9" y="14" width="1" height="1" fill="#FFFFFF" />
<rect x="10" y="14" width="1" height="10" fill="#2F2F2F" />
<rect x="11" y="14" width="1" height="1" fill="#FFFFFF" />
<rect x="12" y="14" width="17" height="10" fill="#2F2F2F" />
<rect x="4" y="15" width="1" height="9" fill="#2F2F2F" />
<rect x="7" y="15" width="1" height="9" fill="#2F2F2F" />
<rect x="9" y="15" width="1" height="9" fill="#2F2F2F" />
<rect x="11" y="15" width="1" height="9" fill="#2F2F2F" />
<rect x="3" y="24" width="26" height="1" fill="#000000" />
</svg>