<?xml version="1.0" encoding="UTF-8" ?>
<svg version="1.1" width="32" height="32" xmlns="http://www.w3.org/2000/svg" shape-rendering="crispEdges">
<rect x="7" y="10" width="3" height="1" fill="#000000" />
<rect x="22" y="10" width="3" height="1" fill="#000000" />
<rect x="6" y="11" width="1" height="1" fill="#000000" />
<rect x="7" y="11" width="2" height="1" fill="#6772A9" />
<rect x="9" y="11" width="1" height="1" fill="#5C4CB8" />
<rect x="10" y="11" width="1" height="1" fill="#000000" />
<rect x="21" y="11" width="1" height="1" fill="#000000" />
<rect x="22" y="11" width="2" height="1" fill="#7467A9" />
<rect x="24" y="11" width="1" height="1" fill="#3A3277" />
<rect x="25" y="11" width="1" height="1" fill="#000000" />
<rect x="5" y="12" width="1" height="1" fill="#000000" />
<rect x="6" y="12" width="2" height="5" fill="#6772A9" />
<rect x="8" y="12" width="1" height="1" fill="#5C4CB8" />
<rect x="9" y="12" width="1" height="1" fill="#6772A9" />
<rect x="10" y="12" width="1" height="1" fill="#5C4CB8" />
<rect x="11" y="12" width="1" height="1" fill="#000000" />
<rect x="20" y="12" width="1" height="1" fill="#000000" />
<rect x="21" y="12" width="2" height="5" fill="#7467A9" />
<rect x="23" y="12" width="1" height="1" fill="#3A3277" />
<rect x="24" y="12" width="1" height="1" fill="#7467A9" />
<rect x="25" y="12" width="1" height="1" fill="#3A3277" />
<rect x="26" y="12" width="1" height="1" fill="#000000" />
<rect x="4" y="13" width="1" height="3" fill="#000000" />
<rect x="5" y="13" width="1" height="3" fill="#6772A9" />
<rect x="8" y="13" width="1" height="9" fill="#6772A9" />
<rect x="9" y="13" width="1" height="1" fill="#5C4CB8" />
<rect x="10" y="13" width="1" height="1" fill="#6772A9" />
<rect x="11" y="13" width="1" height="3" fill="#5C4CB8" />
<rect x="12" y="13" width="1" height="3" fill="#000000" />
<rect x="14" y="13" width="4" height="1" fill="#6772A9" />
<rect x="19" y="13" width="1" height="3" fill="#000000" />
<rect x="20" y="13" width="1" height="3" fill="#7467A9" />
<rect x="23" y="13" width="1" height="9" fill="#7467A9" />
<rect x="24" y="13" width="1" height="1" fill="#3A3277" />
<rect x="25" y="13" width="1" height="1" fill="#7467A9" />
<rect x="26" y="13" width="1" height="3" fill="#3A3277" />
<rect x="27" y="13" width="1" height="3" fill="#000000" />
<rect x="9" y="14" width="1" height="1" fill="#6772A9" />
<rect x="10" y="14" width="1" height="1" fill="#5C4CB8" />
<rect x="24" y="14" width="1" height="1" fill="#7467A9" />
<rect x="25" y="14" width="1" height="1" fill="#3A3277" />
<rect x="9" y="15" width="1" height="1" fill="#5C4CB8" />
<rect x="10" y="15" width="1" height="1" fill="#6772A9" />
<rect x="24" y="15" width="1" height="1" fill="#3A3277" />
<rect x="25" y="15" width="1" height="1" fill="#7467A9" />
<rect x="5" y="16" width="1" height="1" fill="#000000" />
<rect x="9" y="16" width="1" height="1" fill="#6772A9" />
<rect x="10" y="16" width="1" height="1" fill="#5C4CB8" />
<rect x="11" y="16" width="1" height="1" fill="#000000" />
<rect x="20" y="16" width="1" height="1" fill="#000000" />
<rect x="24" y="16" width="1" height="1" fill="#7467A9" />
<rect x="25" y="16" width="1" height="1" fill="#3A3277" />
<rect x="26" y="16" width="1" height="1" fill="#000000" />
<rect x="6" y="17" width="1" height="1" fill="#000000" />
<rect x="7" y="17" width="1" height="5" fill="#6772A9" />
<rect x="9" y="17" width="1" height="1" fill="#5C4CB8" />
<rect x="10" y="17" width="1" height="1" fill="#000000" />
<rect x="14" y="17" width="4" height="1" fill="#403A6F" />
<rect x="21" y="17" width="1" height="1" fill="#000000" />
<rect x="22" y="17" width="1" height="5" fill="#7467A9" />
<rect x="24" y="17" width="1" height="1" fill="#3A3277" />
<rect x="25" y="17" width="1" height="1" fill="#000000" />
<rect x="5" y="18" width="1" height="1" fill="#000000" />
<rect x="6" y="18" width="1" height="4" fill="#6772A9" />
<rect x="9" y="18" width="1" height="1" fill="#6772A9" />
<rect x="10" y="18" width="1" height="1" fill="#5C4CB8" />
<rect x="11" y="18" width="1" height="1" fill="#000000" />
<rect x="20" y="18" width="1" height="1" fill="#000000" />
<rect x="21" y="18" width="1" height="4" fill="#7467A9" />
<rect x="24" y="18" width="1" height="1" fill="#7467A9" />
<rect x="25" y="18" width="1" height="1" fill="#3A3277" />
<rect x="26" y="18" width="1" height="1" fill="#000000" />
<rect x="4" y="19" width="1" height="1" fill="#000000" />
<rect x="5" y="19" width="1" height="3" fill="#6772A9" />
<rect x="9" y="19" width="1" height="1" fill="#5C4CB8" />
<rect x="10" y="19" width="1" height="1" fill="#6772A9" />
<rect x="11" y="19" width="1" height="1" fill="#5C4CB8" />
<rect x="12" y="19" width="1" height="1" fill="#000000" />
<rect x="19" y="19" width="1" height="1" fill="#000000" />
<rect x="20" y="19" width="1" height="3" fill="#7467A9" />
<rect x="24" y="19" width="1" height="1" fill="#3A3277" />
<rect x="25" y="19" width="1" height="1" fill="#7467A9" />
<rect x="26" y="19" width="1" height="1" fill="#3A3277" />
<rect x="27" y="19" width="1" height="1" fill="#000000" />
<rect x="3" y="20" width="1" height="3" fill="#000000" />
<rect x="4" y="20" width="1" height="2" fill="#6772A9" />
<rect x="9" y="20" width="1" height="1" fill="#6772A9" />
<rect x="10" y="20" width="1" height="1" fill="#5C4CB8" />
<rect x="11" y="20" width="1" height="1" fill="#6772A9" />
<rect x="12" y="20" width="1" height="2" fill="#5C4CB8" />
<rect x="13" y="20" width="1" height="3" fill="#000000" />
<rect x="18" y="20" width="1" height="3" fill="#000000" />
<rect x="19" y="20" width="1" height="2" fill="#7467A9" />
<rect x="24" y="20" width="1" height="1" fill="#7467A9" />
<rect x="25" y="20" width="1" height="1" fill="#3A3277" />
<rect x="26" y="20" width="1" height="1" fill="#7467A9" />
<rect x="27" y="20" width="1" height="2" fill="#3A3277" />
<rect x="28" y="20" width="1" height="3" fill="#000000" />
<rect x="9" y="21" width="1" height="1" fill="#5C4CB8" />
<rect x="10" y="21" width="1" height="1" fill="#6772A9" />
<rect x="11" y="21" width="1" height="1" fill="#5C4CB8" />
<rect x="24" y="21" width="1" height="1" fill="#3A3277" />
<rect x="25" y="21" width="1" height="1" fill="#7467A9" />
<rect x="26" y="21" width="1" height="1" fill="#3A3277" />
<rect x="4" y="22" width="9" height="1" fill="#000000" />
<rect x="19" y="22" width="9" height="1" fill="#000000" />
</svg>